# xmcd CD database file
#
# Track frame offsets:
#	150
#	33717
#	69010
#	91814
#	96662
#	127099
#	156072
#	178460
#	200057
#	222339
#
# Disc length: 3038 seconds
#
# Revision: 0
# Processed by: cddbd v1.5PL3 Copyright (c) Steve Scherf et al.
# Submitted via: CDex 1.51
#
DISCID=970bdc0a
DTITLE=Nils Petter Molvær - Solid Ether
DYEAR=2000
DGENRE=Jazz
TTITLE0=Dead Indeed
TTITLE1=Vilderness 1
TTITLE2=Kakonita
TTITLE3=Merciful 1
TTITLE4=Ligotage
TTITLE5=Trip
TTITLE6=Vilderness 2
TTITLE7=Tragamar
TTITLE8=Solid Ether
TTITLE9=Merciful 2
EXTD=YEAR: 2000
EXTT0=
EXTT1=
EXTT2=
EXTT3=
EXTT4=
EXTT5=
EXTT6=
EXTT7=
EXTT8=
EXTT9=
PLAYORDER=
